<?xml version="1.0" standalone="no"?>
<!DOCTYPE svg PUBLIC "-//W3C//DTD SVG 20010904//EN"
 "http://www.w3.org/TR/2001/REC-SVG-20010904/DTD/svg10.dtd">
<svg version="1.0" xmlns="http://www.w3.org/2000/svg"
 width="225.000000pt" height="225.000000pt" viewBox="0 0 225.000000 225.000000"
 preserveAspectRatio="xMidYMid meet">
<metadata>
Created by potrace 1.14, written by Peter Selinger 2001-2017
</metadata>
<g transform="translate(0.000000,225.000000) scale(0.100000,-0.100000)"
fill="#000000" stroke="none">
<path d="M922 2238 c-7 -7 -12 -44 -12 -95 l0 -83 -40 0 c-46 0 -53 -10 -65
-100 -4 -30 -13 -65 -21 -77 l-13 -21 -76 29 c-42 16 -83 29 -90 29 -8 0 -27
-18 -41 -40 l-27 -40 -113 0 -114 0 0 54 c0 48 4 58 35 89 30 30 35 42 35 82
0 38 -5 52 -29 76 -24 23 -38 29 -74 29 -113 0 -157 -136 -66 -201 28 -20 29
-23 29 -103 0 -50 5 -87 12 -94 8 -8 52 -12 130 -12 95 0 118 -3 118 -14 0 -8
30 -38 66 -68 l66 -53 -108 -6 c-60 -4 -143 -7 -185 -8 -72 -1 -76 0 -87 25
-18 38 -76 59 -124 44 -102 -30 -102 -180 0 -210 48 -15 106 6 124 44 l11 26
145 0 146 0 -27 -28 c-15 -15 -27 -34 -27 -42 0 -7 16 -41 35 -76 32 -58 35
-69 35 -148 l0 -86 -93 0 c-92 0 -94 0 -115 30 -32 43 -88 57 -136 35 -87 -42
-87 -158 0 -200 48 -22 104 -8 136 35 l22 30 123 0 c148 0 146 -2 141 132 l-3
92 63 25 c41 16 66 21 73 14 5 -5 15 -44 23 -86 13 -78 28 -107 52 -107 11 0
14 -21 14 -95 l0 -95 -63 0 c-36 0 -68 -5 -75 -12 -9 -9 -12 -88 -12 -293 l0
-280 -165 -165 c-164 -163 -188 -199 -149 -214 9 -3 289 -6 623 -6 625 0 631
0 631 39 0 8 -58 73 -130 146 l-130 131 0 103 c0 100 1 104 38 166 20 36 41
65 46 65 4 0 34 -15 65 -34 138 -83 148 -86 294 -86 90 0 137 4 145 12 8 8 12
50 12 123 l0 111 35 34 c33 32 35 37 35 102 l0 68 45 0 c51 0 85 25 85 64 0
13 -27 84 -60 158 l-60 135 33 63 c29 57 32 71 31 144 -2 100 -23 189 -71 286
-52 108 -175 228 -299 293 -97 50 -124 56 -144 32 -10 -12 -39 -15 -141 -15
l-129 0 0 43 c0 24 -5 48 -12 55 -17 17 -409 17 -426 0z m366 -108 c2 -24 8
-50 14 -57 7 -9 46 -13 134 -13 l123 0 -67 -95 -67 -95 -61 0 c-56 0 -64 3
-82 28 l-21 27 -84 -29 c-46 -16 -91 -27 -99 -23 -10 3 -19 32 -28 84 -13 85
-22 103 -51 103 -16 0 -19 8 -19 53 0 30 3 57 7 61 4 3 72 5 152 4 l146 -3 3
-45z m-990 -42 c19 -19 14 -46 -9 -59 -31 -16 -66 19 -50 50 13 23 40 28 59 9z
m1603 -148 c114 -112 175 -265 167 -416 -3 -63 -8 -79 -36 -119 -17 -25 -32
-51 -32 -58 0 -7 29 -76 64 -154 l64 -143 -52 0 c-29 0 -57 -5 -64 -12 -7 -7
-12 -39 -12 -75 0 -62 0 -63 -27 -63 -27 0 -81 23 -135 58 -29 18 -57 11 -66
-17 -7 -20 64 -78 118 -96 49 -16 60 -28 40 -40 -6 -3 -10 -50 -10 -106 l0
-99 -92 0 c-87 0 -98 2 -163 36 -38 20 -107 59 -153 86 l-83 51 3 126 3 126
90 37 90 36 3 96 3 96 -56 73 -55 74 0 214 0 214 81 113 80 112 82 -42 c54
-28 104 -65 148 -108z m-927 33 c2 -10 7 -38 11 -63 10 -70 14 -78 51 -101 39
-24 63 -23 141 9 l52 21 20 -33 c12 -18 21 -37 20 -42 0 -5 -27 -31 -60 -57
-56 -46 -59 -50 -59 -93 0 -48 -1 -47 94 -126 l29 -24 -18 -35 c-10 -19 -19
-36 -21 -38 -2 -2 -37 9 -78 24 l-75 27 -38 -23 c-49 -29 -50 -31 -58 -97 -10
-79 -12 -82 -60 -82 l-42 0 -12 75 c-12 73 -14 77 -54 102 l-41 26 -60 -23
c-95 -35 -91 -35 -115 5 -12 21 -21 38 -19 39 2 1 29 24 61 50 56 47 57 50 57
100 0 50 -1 52 -60 100 l-60 48 21 38 22 38 72 -26 c73 -26 73 -26 114 -8 44
20 52 37 66 139 l7 47 43 0 c33 0 45 -4 49 -17z m466 -248 l0 -75 -92 0 -92 0
54 49 c52 45 54 49 42 75 l-12 26 50 0 50 0 0 -75z m-1251 -134 c13 -24 -8
-55 -34 -50 -28 6 -42 34 -26 53 18 22 48 20 60 -3z m1246 -91 l0 -75 -47 -3
c-45 -3 -62 8 -38 23 22 13 8 42 -42 87 l-53 48 90 -3 90 -2 0 -75z m-252
-174 l68 -26 25 25 c23 23 32 25 117 25 l92 -1 33 -44 c19 -27 32 -56 32 -75
l0 -30 -75 0 -75 0 0 -35 c0 -34 1 -35 43 -36 l42 0 -62 -29 -63 -29 0 -51 0
-50 -205 0 -205 0 0 95 0 95 26 0 c50 0 61 14 74 102 7 46 18 86 24 91 13 9
22 7 109 -27z m-878 -185 c9 -28 -5 -51 -31 -51 -29 0 -46 28 -33 52 13 24 56
23 64 -1z m715 -517 l0 -277 -35 -38 -35 -39 0 90 0 90 -40 0 -40 0 0 -136 0
-136 -46 -54 -46 -54 -129 0 c-71 0 -129 3 -129 7 0 4 63 71 140 148 l140 142
0 266 0 267 110 0 110 0 0 -276z m150 158 l0 -118 75 -74 c41 -41 75 -80 75
-87 0 -10 -28 -13 -110 -13 l-110 0 0 205 0 205 35 0 35 0 0 -118z m190 33 c0
-84 1 -86 29 -103 l30 -18 -31 -49 c-17 -28 -32 -52 -35 -54 -2 -3 -26 17 -53
44 l-50 49 0 108 0 108 55 0 55 0 0 -85z m-190 -575 l0 -170 -147 0 c-138 0
-145 1 -132 18 8 9 46 53 85 97 121 138 124 143 124 186 0 38 1 39 35 39 l35
0 0 -170z m150 109 l0 -62 107 -108 107 -109 -142 0 -142 0 0 170 0 170 35 0
35 0 0 -61z"/>
<path d="M1590 1800 l0 -70 35 0 35 0 0 70 0 70 -35 0 -35 0 0 -70z"/>
<path d="M1590 1615 c0 -33 2 -35 35 -35 33 0 35 2 35 35 0 33 -2 35 -35 35
-33 0 -35 -2 -35 -35z"/>
<path d="M1590 1465 c0 -33 2 -35 35 -35 33 0 35 2 35 35 0 33 -2 35 -35 35
-33 0 -35 -2 -35 -35z"/>
<path d="M1903 1493 c-8 -3 -13 -24 -13 -54 l0 -49 -44 0 c-42 0 -76 -18 -76
-40 0 -25 34 -40 91 -40 92 0 99 7 99 93 0 86 -14 108 -57 90z"/>
<path d="M852 1740 c-129 -79 -74 -274 77 -274 56 0 82 14 118 60 52 69 26
181 -51 218 -46 22 -104 20 -144 -4z m122 -71 c56 -44 21 -133 -51 -127 -73 6
-97 99 -35 133 37 20 55 18 86 -6z"/>
<path d="M1100 1165 c0 -33 2 -35 35 -35 33 0 35 2 35 35 0 33 -2 35 -35 35
-33 0 -35 -2 -35 -35z"/>
<path d="M1250 1165 c0 -33 2 -35 35 -35 33 0 35 2 35 35 0 33 -2 35 -35 35
-33 0 -35 -2 -35 -35z"/>
<path d="M870 715 c0 -34 1 -35 40 -35 39 0 40 1 40 35 0 34 -1 35 -40 35 -39
0 -40 -1 -40 -35z"/>
<path d="M870 565 c0 -34 1 -35 40 -35 39 0 40 1 40 35 0 34 -1 35 -40 35 -39
0 -40 -1 -40 -35z"/>
</g>
</svg>
